<?xml version="1.0" encoding="UTF-8"?>
<svg id="Layer_1" xmlns="http://www.w3.org/2000/svg" version="1.1" viewBox="0 0 1618 608">
  <!-- Generator: Adobe Illustrator 30.2.1, SVG Export Plug-In . SVG Version: 2.1.1 Build 1)  -->
  <defs>
    <style>
      .st0 {
        fill: #345338;
      }

      .st1 {
        stroke-width: 7.6px;
      }

      .st1, .st2 {
        fill: none;
        stroke: #6ae276;
        stroke-miterlimit: 10;
      }

      .st2 {
        stroke-width: 8px;
      }

      .st3 {
        fill: #6ae276;
      }

      .st4 {
        fill: #4f9c51;
      }

      .st5 {
        fill: #6da773;
      }

      .st6 {
        fill: #1d3f24;
      }

      .st7 {
        fill: #356b31;
      }
    </style>
  </defs>
  <path class="st6" d="M1618,9.2v3c-.2-1-.2-2,0-3Z"/>
  <path class="st6" d="M1618,17v1.6c-.2-.5-.2-1.1,0-1.6Z"/>
  <path class="st6" d="M1618,21.7v3.3c-.2-1.1-.2-2.1,0-3.3Z"/>
  <path class="st6" d="M1618,26.1v3.5c-.2-1.2-.2-2.3,0-3.5Z"/>
  <path class="st6" d="M1618,49.8v5.8-5.8Z"/>
  <path class="st6" d="M1618,64.8v5.5c-.3-1.8-.3-3.7,0-5.5Z"/>
  <path class="st3" d="M422.9,155.4c-.9,5-1.9,9.9-3.1,14.7-1.1,4.3-1.4,8.5-2.5,11.9-.5,1.6-1.2,4.6-2,8.9-1.3,8.1-5.4,22.6-7.4,32.6-3.9,17.9-4.8,22.1-9.9,43.9-1.3,5.4-1.8,9.4-3.2,13.8-1.8,6.3-1.4,10.1-3.5,17-1.5,5.5-2,9.8-3.5,14.6-2.4,9.1-5.6,25.5-6,27.4-2,11-5.4,23.1-7.4,33.1-1.2,6.1-3.3,15.4-6.3,27.8-2.8,16.3-8.3,35.2-11.4,50-.3,1.4-.8,2.8-1.3,4.2-2.9,6.9-5.1,12.2-6.8,15.8-.8,1.8-1.7,3.3-2.6,4.4-11.2,14.8-24.5,22.4-42.5,26.5-.1.2-.2.3-.3.5-10.5,1.1-21.3,0-32.2-3.2-.5-.1-1,0-1.2.5-4.2,7.9-8.3,16-12.2,24.3-1.2,2.6-2.7,5-4.4,7.2-1.3,1.4-2.6,1.8-3.9,1.4-.7-.3-1.2-1.1-1.1-1.9.3-3.1,1-5.9,2.2-8.4,2.2-4.4,3.3-10,5-14.8,0,0,4.5-14.3,4.5-14.3.1-.4,0-.7-.3-1-7.4-7-11.4-15.3-12.1-24.8-1-12,1.1-32.4,5.4-48,11.4-53.4,23-98.5,31.3-135.9.7-2.4,1.5-5.8,2.4-10,5.9-27,9-41,9.2-41.9,1.7-9.1,5.2-21.2,7.1-30.7.8-4,2.6-8.3,3.2-12.6.8-5.4,2.3-10,3.5-16,.5-2.7,2-9,4.6-18.8,1.1-4.4,3-8.3,4.1-12.6.2-.8.6-1.6,1-2.3,1.3-2,3.1-5.1,5.3-9.1,1.9-3.6,5-6.9,7.8-10l5.8-5.5c16.9-14.9,37.8-18.7,59.4-14.2.2,0,.5,0,.6-.3,2.5-4.6,5.3-8.4,7.6-13.2,1.1-2.3,3.1-5.7,5.7-10.2,2.1-3.5,2.9-5.5,6.2-6.4,1-.3,2.1.1,2.4,1,1.4,3.6-2.9,11.8-4.1,15.2-2.6,7.5-4.7,13.9-6.4,19.3-.1.3,0,.7.3.9,16,12.6,15.5,30.4,12.8,49ZM383.6,140c-.7,1-1.7,2.8-2.9,5.5-1.7,3.5-4.9,9.8-9.7,18.8-3.8,6.8-7.7,15.2-9.3,18.1-3.5,5.4-6.1,13.3-9.7,18.8-.4.6-.7,1.2-1,1.9-1.4,3.8-3.1,7.5-5.2,11.2-1.5,2.3-5.4,11.1-10.4,21,0,0-1.1,1.4-1.1,1.4-.2.3-.4.5-.5.8l-13.2,27.4c-2.4,3.6-3.8,7.6-5.6,11.1-3.9,7.2-7.1,13.9-9.6,20-1.7,4.1-3.8,6.9-6.4,11.1-.3.4,0,1,.5.9,5.9-.1,14.2-.3,25-.4,4.6,0,11.3,1.4,8.4,7.8-.2.6-2.7,7.2-7.3,20-15,38.8-29.6,78.3-42.8,113.5-5.2,12.9-8.2,20.8-9.2,23.7-1.6,5.2-3.5,10.2-5.6,14.8-.3.6-.6,1.7-1,3.2,0,.1,0,.3.2.3,0,0,0,0,0,0,0,0,.6,0,.6,0,0,0,.2,0,.2-.2,3.2-8.3,7.5-16.5,11.9-24.4,1.3-2.1,3.1-5.9,5.5-11.4,7.5-16.5,12.8-24.4,24.1-48.7,2.4-4.9,3.6-7.5,3.7-7.7,4.5-8.7,4.1-9.5,9.3-19.3,4.2-8.2,7.7-15.2,10.3-20.8,2.4-5.1,4.8-8.6,6.6-13.2,2-4.9,5.9-10.9,8.3-16.8,1.9-4.8,4.9-10.4,6.8-13.9,3.1-5.7,5.7-11.6,8.4-17.5,2.7-4.2,3.7-8.2,6-12,.5-.8,2.8-4.8,6.8-12,.2-.3,0-.7-.4-.6-11.5.2-22.4.1-32.6-.2-2.2,0-4.1-.9-3.3-3,2.2-4.7,3.8-9.3,4.9-13.8.2-.9.5-1.7.9-2.5,1.6-3.4,2.9-7,3.8-10.7,1.2-3.7,3.5-7.3,4.4-10.8,2.5-7.8,5.2-13.6,8.7-22.2,2.1-5.2,3.5-9.9,5.5-14.4,4.9-10.6,8.4-22.5,13.3-33.1,2.7-9,6.2-16,9.2-24.5,1.1-2,2-3.8,2.5-5.3,1.8-5.1,3.7-9.6,5.6-13.3.5-1,2.3-5.7,5.4-14.1.2-.4.2-1,0-1.6,0-.2-.3-.2-.4,0-2.4,4.2-4.6,7.8-6.4,10.7-3.3,5.4-6.4,13.5-9.7,18.8-1.9,3-3.2,5.5-3.9,7.6ZM342.5,117.3c-8.9,7.6-16.5,17.1-19.7,28.4-1.7,6.9-3.9,12.4-5.5,20-1.3,6.4-2.7,12.1-4.3,17.2-1.2,4.2-1.5,8.6-2.9,12.7-1.6,4.2-1.7,8.9-3.3,14.4-2.1,5-2.5,10.9-3.6,15.9-1.8,7.7-3.5,15.3-5,23-1,4.9-2.8,9.4-3.8,14.6-1.2,6.5-2.3,11.5-3.3,14.9-2.2,7.9-2.9,15.7-4.9,23.1-1.2,4.2-2.2,8.3-3.2,12.2-5,20.1-8.8,40.5-13.5,58.5-.3.9-2.6,11.2-7.2,31-1.3,6.9-6.7,31-6.8,31.3-.9,3.1-1.4,6.3-1.5,9.5,0,.5-.4,3.7-1.1,9.5-.5,3.7-.3,9.3.5,16.6,0,.5.2.9.4,1.4.9,1.6,1.7,4,2.4,7.1.2,1,1.2,2.7,2.9,5.2.5.7,1.2.5,1.8,0,.4-.2.8,0,.8.5,0,1,.3,1.5.7,1.6.4,0,.8-.2.9-.5,10.9-30.2,18-49.3,21.1-57.4,2.2-5.7,3.4-8.8,3.5-9.2,1.8-6.6,4.5-11.6,6.8-18.7.7-2.3,2.2-4.7,3-7,4.6-13.4,7.5-21.5,8.8-24.2,2.4-5.3,3.8-9.1,4.1-11.3.4-1.6,1.5-3,2-4.5.7-1.9,3.2-8.7,7.6-20.6,1.7-4.5,3.5-7.9,4.5-12.2.2-1,1-2.9,2.2-5.6.2-.4-.1-1-.6-1,0,0-34.4.1-34.4.1-.7,0-1.3-.6-1.3-1.4,0-1,.3-1.8.7-2.5,1.4-2.6,5.2-10.2,11.4-22.7,2.8-5.7,5.6-9.7,7.5-15,1.5-4,3.2-6.6,5.3-10.6,1.2-2.8,2.2-5.9,3.8-8.4,3.3-5.6,4.9-10.4,7.9-15.2,3.2-5.1,6.6-13.1,10.1-18.7.2-.4,2.4-6,2.5-6.2,4.3-7.1,8.1-14.2,11.4-21.3,3-6.4,6.6-12.6,9.7-18.9,2.8-5.6,6.3-10.4,9-16.8,1.3-3.2,2.9-6.2,4.7-9.1,1.9-3.1,2.7-6.5,4.6-9.5,2.2-3.7,3.6-7.6,5.5-11.1,4.7-8.7,8.5-15.8,11.3-21.3.2-.3,0-.7-.4-.8-10.5-.6-20.4-.5-29.8,1.2-12.1,4.4-14,4.6-23.4,11.6ZM347.9,261.6l-1.8,3.9c-.2.4.1.9.6.8,0,0,33.7-.6,33.7-.6,1.9.1,4.6,3.8,3,5.3-.8.7-1.2,1.3-1.5,1.9-1.8,4.2-4.1,8.7-6.7,13.7-1.4,2.5-1.7,4.9-3.1,7.4-2.8,4.4-5,8.3-6.7,11.9-1.4,3.2-5.6,10.3-6.9,14.7-3,5.7-5.9,11.5-8.8,17.3-1.2,2.3-2.8,4.3-3.6,6.7-1.1,3.2-3.5,6.7-4.7,10.4-.3.9-.7,1.8-1.3,2.7-1.9,2.8-3.4,5.5-4.5,7.9-3.5,7.8-7.2,14.7-11.2,23.8-2.4,5.4-5,10.1-8.2,15.7-1.5,2.6-2,5.7-3.4,8.4-5,10.1-8.2,15.7-11.7,23.1-2.1,4.8-5,9.2-6.7,13.3-1.4,3.6-3.9,7-5.7,11-4.3,9.2-9.4,19.7-15.5,31.6-.4.8,0,1.7.9,1.9,11.5,3.3,26.5,3.4,37.3-.3,10.9-3.8,23.1-11.4,29.3-21.1,1.9-3.6,3-5.8,3.6-6.8,6.7-12,9.3-25.7,12.7-39.6,2.7-10.9,4.9-26,8.1-36.7,1.6-5.7,2.6-13.8,4.5-21.1,2.8-10.5,4-14.8,5.1-22.2.3-1.8.8-4.4,1.7-7.9,3.8-15.2,6.2-31.8,10.9-49.9.3-2,1-4.7,2-8,1.5-4.8,1.7-9.5,3-15,4.4-18.5,6.9-29.6,7.6-33.4,1-5.4,2.2-9.8,3.5-13.4.1-.3.2-.6.2-1,.5-6.2,2.5-11.4,3.7-17.3,3.6-18.4,3.1-12.6,6.8-30.2,3.2-16.2,5.4-25.1,4.1-39.3-1.1-4.7-2.4-8.8-4.2-12.4-1.3-2.7-3.4-4.9-6.4-6.6-.9-.6-1.9,2.1-2.6,3.3-.5,1-3.5,8.3-9.2,22-2,4.8-3.4,9.9-5.2,13.9-2.4,5-4.5,14.6-8.2,20.8-.6,1.1-1.1,2.2-1.4,3.3-3.2,9.6-5.6,16.2-7.2,19.8-4.4,9.7-7.2,16.5-8.4,20.7-2,6.7-5.3,12.5-7.6,19.1-3.1,8.9-6.4,17.8-9.9,26.7Z"/>
  <path class="st3" d="M1268.1,129.8c.7,3.8.9,6.5.9,8.2-.7,11.5-2,21.7-3.9,30.7-1.8,8.2-2.8,13.7-3,16.5-.6,6.5-1.8,10.6-2.9,17.2-1.4,8.4-2.3,12.4-4.4,22.6-1.7,9.2-4,22.4-5.3,28-2.4,10.8-3.8,22.8-5.8,33.1-2.8,14.1-4.4,22.1-5,24.2-1.1,4-1.3,7.6-2,11.2-2.2,10.9-4,20.5-5.2,28.9-.7,4.4-2.1,8-2.6,12.2-.6,4.4-1.1,7.5-1.6,9.2-.2.6-1.7,8.2-4.5,22.7-2.8,14.2-6.4,30.8-9,46.9-1.2,7.2-4.6,14.4-6.4,20-1.2,3.9-2.7,7.1-4.4,9.8-5.5,9.1-11.3,13.2-19.1,18.6-4,2.8-8.8,5-14.5,6.6-6.3,1.8-9.4,2.9-14.8,3.3-8.5.6-17.1-.2-25.9-2.5-.2,0-.4-.2-.5-.4-.4-.9-1.5.2-1.7.6-5.1,9.9-9.8,19.5-14,28.8-.7,1.5-1.7,2.9-3,4.4-1.3,0-2.6-.2-3.7-.7-.3-.1-.5-.4-.5-.7-.1-1.5,0-2.8.4-3.8,2.4-6,4-10.8,4.9-14.3,1.4-5.7,4.3-11.2,5.5-18.3.2-1.1-.1-2.3-.9-3.1-4-4-7.1-8.8-9.2-14.4-1.6-4.4-2.4-10.1-2.3-17,.1-12.5.9-22.9,3.5-34.4,2.9-12.3,3.7-19.3,5.5-30.5,1.3-8.5,4.4-17.1,5.5-25.3.6-4.1,1.9-7.3,2.4-11.2.3-2.7.8-5.5,1.5-8.5,4-17.3,5.6-27.8,7.6-40.6,1.8-5.3,2.2-10,3.3-14.6,3.2-14.2,1.5-8.2,5.3-28.5.5-2.7,1.8-5.9,2.1-8.2,1.1-7.3,1.8-11.7,2-13.2.9-6.5,2.3-14,4.3-22.6,1.4-6.8,2.3-13,3.8-19,0-2.8.8-7,2.3-12.4,1-3.4,1.2-8,2.1-11.9,3.4-13.9,5.3-31.2,10.9-43.7,9-20.4,28.3-36.7,51.5-37.8,7.9-.4,15.6,0,23.3,1.4.8.1,1.6-.2,2-.9.7-1.2,1.4-2.5,2.2-4,5.8-12.2,9.2-19.3,10.3-21.4.8-1.6,4-3.8,5.7-2,.7.8,1,1.8.7,2.8-1.8,6.2-1.8,8-2.7,11.3-2.4,6.1-4.4,12.7-5.9,19.7-.1.6,0,1.2.5,1.6,7.4,6.8,13.4,15.6,14.8,25.8ZM1165.8,259.6l12-25.9c0-.1.1-.3.2-.4,3.2-4.7,5-10.2,7.3-14.9,6.1-12.8,11.9-24.4,17.6-36.7,2.3-4.9,4.8-9,6.3-14,0,0,0-.2,0-.2l8.1-17.4s0,0,0-.1c3.3-5.4,5.3-11.5,7.9-16.1,2.2-3.8,3.3-7.8,5.2-11.7,3.8-7.8,6.8-14,9.1-18.5.2-.4,0-.8-.3-1-.9-.4-1.8-.6-2-.5-9.3-.6-18-1.1-26.3,0-1.6.6-4.4,1.5-8.7,2.9-8.6,2.7-16.5,8-22.1,15.4-3.4,4.5-5.5,7.2-6.1,8.3-3.2,5.1-5.6,11.7-7.4,19.7-.6,2.5-1,4.3-1.3,5.3-1.7,5.4-1.9,11.1-3.3,16.8-2.5,9.4-2.6,14.9-4.7,22.7,0,.3-.6,3.4-1.6,9.3-4.1,19.7-6.3,36.5-11.9,61-.9,4-.9,7.2-1.8,10.4-1.8,6.5-1.7,12.9-3.4,19.7-1.9,7.8-2.2,12.5-4.1,19.6-.7,2.8-1.2,5.7-1.4,8.7-1.1,4.7-2.5,9.4-2.9,14.8-.9,3.9-2.2,7.9-2.7,11.5-1.9,12.3-5.2,26.3-7.6,39.3-2.8,16.9-8.6,38.1-10.1,55-.2,4.3-.6,9.5-.9,15.5-.2,3.3,0,6.8.9,10.5.7,1.7,2,3.5,2.2,5.2.9,3.9,3.3,7,5.9,10.2.3.4,1.1.3,1.2-.2,1.4-4.1,2.5-7.1,3.2-9.1.2-1.6.9-2.8,1.4-4.9,1.3-4.5,3-7.4,4.6-12.7,1.4-4.6,2.5-7.4,3.2-8.5.1-.2,1-2.9,2.5-7.9.6-2.1,1.2-3.9,1.8-5.2,1.9-4.4,2.7-8.3,4.5-13,2.6-6.6,4-13.3,6.9-19.9,1.2-2.3,1.8-6.4,3-9.8,1-2.1,2.1-5.1,3.4-9,1.2-3.9,3.2-7.1,4.3-10.9.7-2.4,1.7-5.2,2.9-8.3,1.7-4.3,2.6-7.9,4.1-11.6,1.5-3.6,2.7-6.9,3.6-9.8,3.1-10.1,5.8-16.8,11-31.8.1-.3-.1-.6-.5-.6,0,0-36.1.1-36.1.1-.8,0-1.4-.7-1.4-1.5.3-3.7,3.2-6.3,4.2-9.2,2.7-4.9,8.2-17.1,11.7-23.6,3.4-5.9,4.7-11.5,8.2-17.1ZM1225.5,269.2l-33.9-.2c-1.1,0-1.8-1.1-1.5-2.1,10.7-31.2,16.5-47.5,26.4-76.2,1.3-3.1,1.9-6.8,3.3-9.8.5-1.2,1.4-3.6,2.6-7.3,2.5-7.7,5.2-12.8,6.9-19.8,1.2-4.8,3.5-9.3,4.7-14.3.5-2.3,2.3-5.4,2.7-7.1,2.4-7.8,3.9-12.3,4.4-13.6,3.5-8.6,5.4-14,5.6-16.3,0-.1,0-.2-.2-.2,0,0-.3,0-.3,0-.3-.1-.6,0-.8.3-2.1,5.7-6,12.1-8,17-2.4,6-4.6,9.1-7.4,15.5-3.9,8.9-8.2,17.5-11.6,26.4-.8,2.1-1.9,4.2-3.4,6.5-.7,1.1-2,4.1-4,9.1-.3.6-.6,1.3-.9,1.9-2.6,4.1-4,8.5-5.7,12.9-1.8,3.5-3.8,6.5-5.3,10.3-1.5,3.9-4.2,8-5.8,12-2.4,5.9-4.5,10.4-6.2,13.8-7,14.2-6,13.5-15.6,33.9-1.2,2.6-2.9,4.7-3.7,7.2-.3.8-1.2,2.7-2.6,5.5-1.2,2.1-2.1,5-3.5,7.5-1.2,1.8-2.5,3.8-3.3,6.4-.9,2.9-1.9,5.3-2.9,7.2-.2.4-.5.8-.8,1.1-2,2-3.2,4.5-3.5,7.5,0,.4.3.7.7.7,8.4-.2,16.6-.4,24.4-.4,3.7,0,6.7.9,9.1,2.7.9.7,1.3,1.9.9,3l-63,178.4c0,.1,0,.2.1.3h.3c.2.2.5,0,.6-.1,3.6-8.1,5.6-12.7,6.1-13.7,12.1-26,12.9-25.1,22.1-46.7,1.9-4.7,5.4-9.6,6.6-14,.6-2.3,1.6-4.5,3-6.6,3.2-4.8,5.6-12.5,8.4-17.3,1-1.7,2.4-4.9,4.1-9.4.5-1.2,1.8-3.2,2.3-5,.6-2.2,1.5-4.3,2.5-6.3,3-5.6,4.7-11,7.4-16,4.2-7.6,6.6-14.5,10.4-21.8,1.1-2.1,1.8-5.5,2.8-7.3,2.7-5.1,5.4-10.8,8.1-17.2,3.4-7.1,4.5-9.3,16.2-34,.6-1.3,1.2-2.4,1.6-3.2.2-.4,0-1-.6-1ZM1196.9,346l-7,14.4c-.8,2.6-1.6,5.3-2.9,7.4-2.6,4.7-4.6,10-6.4,13.6-3.5,7-5.6,11.5-6.5,13.6-1.6,3.9-3.5,6.4-5,10.6-3.9,9.7-10,21.9-14.5,31.9,0,0-24.7,52.4-24.7,52.4-.4.7,0,1.6.9,1.8,7.9,1.8,16.1,2.3,24.5,1.5,6.1-.6,12.9-2.9,18.3-4.8,6.3-2.2,10.1-5.7,16.3-10.7,2.4-2.1,7.3-7.6,9.1-12,4.1-8.8,7.3-16.6,9.2-26.2,1.6-7.7,2.6-13.3,3.2-16.9,4.7-22.2,10.5-57.6,14.6-75.1,1-4.3,1.2-8.7,2.4-12.4.6-1.9,1.2-5,1.8-9.2.8-6,2.7-12.6,3.7-18.7,1.1-6.8,2-11.7,2.9-14.6,1-3.7,1.2-7.5,1.9-11.9.4-2.7,2.4-12.9,6-30.8.5-1.9,4-25.5,4.7-27.6,2.1-8.6,3.8-17.5,4.9-26.6.6-4.4,2.2-9,3-14.1.5-3.2,1.5-6.2,1.9-9.3.4-4.4,1.8-10.2,2.9-16.3-.1-4.1.7-8.2,1.3-12.3,0,0-.3-12.6-.3-12.6-1.7-8.5-5.9-15.9-11.4-21.6-.3-.3-.9-.2-1.1.3-2.2,6.5-3.9,11.2-5.1,13.9-3.8,8.7-6.3,19.8-9.7,28.3-1.3,3.2-1.8,5.8-2.9,9.8-2.3,7.6-6.2,16.6-8.5,24.8-1.9,6.2-4.9,12.9-6.4,17.8-1.1,3.7-2.8,6.6-3.7,10.2-.6,2.3-1.4,4.9-2.6,7.7-1.4,3.3-2.2,6.8-3.8,10.3-2,4.1-2.9,9.4-4.6,14-1.4,3.6-3.3,9-5.8,16.2,0,.2.1.5.4.5,0,0,33.6-.1,33.6-.1.8,0,1.5.7,1.5,1.5,0,0,0,.1,0,.2,0,0-.6,5.3-.6,5.3-2.5,5-3.9,9.3-6.6,14-.8,1.3-1.6,3.5-2.5,6.5-.2.7-.5,1.4-.9,2-3.1,4.7-4.6,10.6-7.5,15.4-2,3.7-4.2,10.3-7.2,15.5-2.7,5.3-7,16.5-10.6,22.7Z"/>
  <path class="st0" d="M1618,71.4v14.6-14.6Z"/>
  <path class="st6" d="M1618,90v10.6-10.6Z"/>
  <path class="st3" d="M885,99.4c3-.1,5.1.9,6.4,3.2.2.4.3.9.2,1.3-1.4,6.6-1.7,12.2-3.4,18.3-2.5,9.3-4.4,21.9-6.7,31.9-1.3,5.8-2,12.3-3.4,18.7-3.2,13.7-3,16.5-5.7,27.4-2.5,9.8-4.2,23.5-7.4,35.2-1.4,5.1-1.5,12-3.2,17.9-.4,1.4-1.3,5.4-2.6,12.2-1.1,5.3-2.9,12.2-3.9,18.9-2.2,12-6.1,29.4-7.6,38.5-.9,4.8-2.8,10.2-3.1,15.7,0,.6-.1,1.1-.3,1.7-1.5,4.3-1.9,9.9-3.1,14.5-6.1,27.5-12.2,64.2-19.4,94.3-3.1,15.3-6,29-8.5,41-.7,3.5-2.8,5.3-6.2,5.3-10.5.1-21,.2-31.4.2-1.4,0-2.9,0-4.2-.1-4-.5-3.2-3.1-3.1-6.5,0-3.7,1.1-7.1,1.8-10.6.4-2.9.8-5.4,1.3-7.5,8-37,11-50.4,14.3-68.7.9-5.3,2.9-10.9,3.6-15.5,1-6.2,2.1-9.9,3-16,0-.2-.3-.3-.5-.3-.4-.1-36.8,122-37,122.1,0,.1-.1.3-.2.3l-2.9,2.3c-.3.2-.6.3-1,.3-9.1,0-17.5,0-25.2.3-2.3,0-13.4.4-13.4-3.6.1-6.5,2.4-18.4,2.5-23.9.2-4.7,1.6-10.7,1.8-16.1.2-5.2.4-8.3.6-9.4.9-4.7,1.4-9,1.6-13,.3-5.1,1.5-10.2,1.9-15.1,1-15.3,4.5-31.9,5-46.9h0c-4.8,20.7-5,22.2-7.1,33.5-3.2,12.2-5.7,24.5-7.7,36.8-.6,3.8-1.9,8-2.6,11.3-2.6,12.8-5.3,25.4-7.9,37.8-1.1,5.1-2.6,8.4-8,8.4-10.9,0-21.4.2-31.5.3-1.8,0-4.2-.2-5.7-1.4-1.9-2.3.9-10,1.6-13.2,3.9-19.5,7.5-36.2,11.4-55.6,1.8-9.8,4.2-21.1,7.3-34,2.7-15.2,6.3-29.4,9.3-44.5,1.8-9.3,5.8-23.7,6.7-29.9.9-6.2,2.5-11.2,3.5-17,.6-3.4,1.5-7.3,2.9-11.7.9-5.9,2.5-11.4,3.5-16.9,1.7-10.1,3.4-18.5,5-25.3,1.1-4.3,1.7-11.4,3.4-16.3.5-1.5,1.6-6.9,3.2-16.2.9-5,2.6-9.4,3.5-14.5,2-10.4,2.9-17.8,5.4-26.8,2.2-7.6,3.3-16.2,5.3-24.5,3.4-13.5,6.4-26.9,8.5-40.8,0,0,2.5-6,2.5-6,.4-.9,1.3-1.5,2.3-1.5,16.7,0,24.7.2,51.9-.3,9.1,0,9.6,4.8,7.7,13.3-1.8,8.6-1.8,18.8-3.1,27.2-1.5,9.6-2.1,21.8-3.9,32.9-1.2,7.3-1.4,16-2.5,23.2-1.2,12.5-3.6,25.9-4.9,39.6-.2,2.1-1,6-.9,9.1h0c.4-1.2,1.2-2.5,1.4-3.9.7-4,2.2-7.4,3.2-10.9,7.5-26,7.1-24.3,11.1-39.3,1.3-3.7,2.7-8.3,4.1-13.6,3.9-12.1,7.9-26.7,13.5-42.6,1.2-3.5,2.1-6.5,2.7-9.1,1-4.3,2.3-7,3.5-10.2.7-3.9,1.9-7.8,3.6-11.9,1-2.3,2.7-3.6,5.3-3.6,1.5,0,7.3-.1,17.4-.2,1.6,0,27.5.7,34.1-.2ZM741.1,110.2c-1.9,9.2-5.9,26.7-7.5,34.4-.8,5.6-1.4,8.9-1.7,9.9-.4,1.4-2.3,9.9-5.7,25.7-1.1,5.9-1.8,10.9-3.6,16.1-.9,6.3-1.5,9.8-1.8,10.7-.9,3.1-1.5,5.6-1.7,7.5-5.5,29-12.3,58.4-12.9,60.9-.6,2.5-1.4,4.9-1.7,7-.9,6.8-2.3,14-4.2,21.6-1.4,5.5-2.2,12.2-3.4,16.3-2.1,7-4.1,16.1-6,27.2-.2,1.3-1.2,5.7-3,13.3-.7,3.2-1.2,5.7-1.5,7.5-1,6.5-2.8,12.7-3.9,18.6-1.3,7-3.4,14-4.3,21.5-.3,2.9-1.1,6.3-2.2,10.4-.7,2.3-.7,4.7-1.6,7.5-1.7,6.5-2.4,12.2-4.3,20.9-2.8,14.1-6.6,28.9-8.4,40.9,0,.5.3,1,.8,1,0,0,30.4-.1,30.4-.1.6,0,1.1-.4,1.2-1,1.3-8.2,3.4-18.5,6.3-31,2.3-10.1,4-20.3,6.3-31.5.8-3.8,2.1-6.8,2.5-10.3.2-2,.7-4.6,1.4-7.8,1.9-8.5,4.7-21.1,6.9-31.4.7-3.9,3.4-14.1,3.9-18.3.9-5.9,2.5-10.3,3.2-15.9.4-3,1-6.4,1.9-10.2,2.1-9.3,3.4-16.1,4.1-20.4.5-3.1,1.7-5.6,2.2-8.9.9-5.6,2.4-10.6,2.7-16.2l1-4.3c1.5-2,5.9-1.6,5.9,1.3-.2,5.4-.7,10.1-1.5,14.1-3.1,17.6-3.4,32.1-5.9,48.5-2,16.7-6.3,43-7.8,65.2-1.3,10.1-2.1,16.1-2.4,17.9-.4,2.4-.2,4.9-.8,7.4-.2.7-.4,2.5-.7,5.5-1.2,12-2.6,24-4.2,36-.4,3.3-.6,6.8-.4,10.6,0,.5.4.9,1,.9h27.7c1-.1,1.9-.8,2.2-1.8,14.7-48.6,24.9-83.8,38.7-126.6,6.7-22.7,15.1-48.6,21-74.8.2-.7.7-2.3,1.5-4.8.1-.3.4-.6.8-.6,1.9-.2,3.6.2,5.1,1.4l-1.8,12.6c-2.1,5.5-3.1,12.5-4.2,16.9-1.7,6.6-2.9,12.2-3.6,16.9-1.3,8.1-4,15.7-4.8,24.1-.4,3-1.8,5.3-2,8.5-1.5,13-6.9,29.8-8.8,42.9-4.8,25.8-11.7,57.3-16.3,79.3-.3,1.3-.4,3-.5,5,0,.4.4.8.8.8,0,0,29.7-.1,29.7-.1,1.1,0,2-.8,2.2-1.9.9-5.7,2.6-11.8,3.6-16.6,2.5-11.9,4.9-23.4,7.1-34.5.8-4.2.9-8.3,2-11.6.8-2.5,1.5-5,2-7.5,3.5-16.4,8.3-42,11.1-54.5,1.8-11.5,4.3-18.7,6.1-31.8,1.7-11.6,4.9-20.2,6.5-31.3.6-4.2,2-8,2.5-11.8.3-2.5.9-5.4,1.7-8.8,7-30.4,10.1-52.4,18.1-87.8,1.1-5.2,1.5-11.1,2.8-15.3.6-2.1,1-3.9,1.2-5.2.6-4.8,1.7-7.9,2.5-13.2.4-2.7,1.1-5.7,2.2-9,1.4-4.4,1.3-8.4,2.6-13,1.5-5.2,1.8-10.7,3.2-15.4.8-2.5,1.5-6,2.2-10.5.2-1.3,1-2.1,1-3.5,0-.3-.3-.6-.6-.6,0,0-51.1.2-51.1.2-.6,0-1.1.4-1.3,1-1.7,6.2-3.4,11.7-5,16.4-2.7,7.7-5.7,17.1-9,28.1-1.3,4.2-2,8.4-3.6,12.9-.9,2.6-2.5,8-4.7,16.3-.3,1-.8,2.3-1.5,3.8,0,0,0,.1,0,.2-1.9,6.6-16.6,57.7-18,62.9l-10.1,31.8c-.3.9-1,1.4-1.9,1.5-4.4.2-4-1.9-3.8-5.5.7-9.7,1.8-19.6,3.3-29.5.6-4,.5-8.1,1.4-11.7,0-.1.6-5,1.8-14.7,1-6.6.3-9.8,1.6-15.3.5-2.1.9-6,1.2-11.5.2-4.4.8-8.9,1.7-13.6,3.7-21.8,5.5-44.7,8-66.8l.7-5.5c0-.4-.3-.9-.7-.8,0,0-51.6.2-51.6.2-.3,0-.6.2-.7.5-.7,1.5-1,3-1.1,4.5Z"/>
  <path class="st3" d="M294.3,110.1c4.2,4.1,7.2,9,9,14.6,1.5,4.7,1.3,9.9,1.7,14.6.3,1.8-.4,6.1-.9,9.4-.2,4-.4,6.3-.5,6.9-.9,3.6-3,12.3-6.3,26.2-3.7,12.2-6,25.7-9.4,36.9-1,3.7-1.2,6.9-2.4,10.7-.7,2.5-2.4,3.7-5,3.7-19.8.2-31.9.3-36.1.3-2.4,0-3.9-.5-3.5-3.2,1-6.7,2.1-12.5,3.4-17.4,1.4-4.9,2.1-14,3.8-17.7,2.1-4.8,1.5-8.3,3.6-14,1.2-3.7,1.5-7.8,2.8-11.8.8-2.4,1.2-6.5,1.1-8.3,0-1.1-.8-2-1.8-2.3-4.5-1.4-13-1.3-14.7,4.1-.3,3.7-1.5,7-2.7,10.4-.9,5.1-2.9,10.5-3.8,15.6-.6,3.5-1.3,6.6-2.2,9.1-2.3,6.8-3.2,13.4-5.3,20.6,0,.3-.6,2.2-1.4,5.7-5.2,21.6-10.4,43-15.6,64.6-2.2,10.4-4.1,18.6-5.7,24.6-1.5,5.5-1.9,10.6-3.5,15.9-.8,2.8-1.8,6.7-3,11.8-4.7,20.8-9.8,40.8-14.7,61.7-2.5,11.7-3.1,16-5.4,23.1-1.1,3.4-1,6.6-1.2,10.2-.1,2.8,4.3,5.4,6.5,5.5,7,.4,10.4-3.2,12-9.6,1.3-5.3,3.1-9.3,4.2-14.5,2-9.3,3.3-15.8,5.3-23.5,1.6-6.8,3.7-17.7,6.8-26.6.3-.9,1.1-1.5,2.1-1.5,0,0,40.5-.2,40.5-.2,1.3,0,2.3,1.3,2,2.6-1.5,6.7-2.3,10.9-3.7,16-2.4,8-4.6,20.3-6.8,29.1-1.1,4.1-1.7,6.7-1.8,7.9-.5,4.9-2.6,10-3.5,15.4-.9,4.9-2.2,8.2-3.1,12.8-.4,3.7-5.1,16.9-5.6,18.3-3.6,8.4-8.5,16.2-16,21.2-6.2,4.1-10.2,6.8-16.9,8.7-12.8,3.6-26.2,4.1-40.2,1.6-8.4-1.5-16.2-4.5-22-10.1-5.4-4.4-8.2-14.5-9.5-20.7-.6-13.5,1.6-25.5,4.3-36.4,5.6-21.7,6.1-26.5,8.9-37.2,1.2-3.8,1.5-7.7,2.6-11.5,1.6-5.6,2.3-10.9,4-17.1,2.5-9,4.8-18.1,6.7-27.2,1.3-6,2.1-9.8,2.5-11.5,8.4-34.3,7.1-30.3,10.7-43.9.9-3,1.4-5.5,1.7-7.6.5-3.9,1.8-6.7,2.6-10.4,2.7-13.8,5.6-23.5,8.1-33.8,1-4.9,2.5-8.4,3.3-12.8.7-4,2.7-9.6,3.3-13.2.6-4,1.9-7.8,3-11.7.4-2.9.9-5.4,1.5-7.6,2.2-7.4,3.4-14,5.5-22.5,1.6-6.8,3.7-12.1,5.3-19.1.2-1,.6-2,1.1-3,1.7-3.2,3-8.3,5.2-11.6,2.8-4.3,4.7-7.2,5.8-8.7,12.9-15,27.1-19.1,46.9-20,10.7-.6,27,1.4,36.3,8.4ZM202.6,152.1c-2.1,6-3.6,13.7-4.9,18.4-1.8,6.4-3.3,12.9-4.6,19.5-2.2,11.1-5.3,18.7-7.7,30.6-1.7,8-3,11.2-4.4,18.5-1.4,7.3-3.4,13.6-5,21.4-.3,1.7-1.2,4.9-2.5,9.8-1.3,4.7-2,10.7-3.7,16.2-1.3,4-1.6,8.3-2.9,12.6-.9,2.8-1.4,4.9-1.7,6.2-4.8,23.1-12,49.7-15.9,68.2-3.4,15.9-14.3,59.5-17.8,77.6-1.1,5.6-1.4,11.4-.7,17.7.5,4.8,1.8,7.3,4.5,11.6,8.3,13.6,27.9,14.5,42.3,14.5,13.7-.7,26.4-3.8,36.4-13.2,2.6-2.4,4.7-6.1,6.5-8.2.9-1.1,1.6-2.3,2-3.7.3-.9,1.7-4.4,4.2-10.6,4.3-10.6,17.8-73.6,21.3-86.7,0-.3-.2-.7-.5-.6-10.6,1.1-21.7.3-32,.3-1.3.1-2.1,1.3-2.5,2.6-1.8,8-3.2,12.3-4.3,18.9-.9,5.5-2.7,10.6-3.9,16.9-2.2,10.9-4.8,21.4-9,31-1.4,1.7-3.2,3.2-5.4,4.7-6.7,4.2-15.6,1.7-19.6-4.8-3.9-6.2,2.8-25.6,9.1-55.8.9-4.2,2.8-9.3,3.4-13.9.4-3,1.9-6.2,2.5-9.6.5-3.1,1.6-7.6,3.2-13.5.7-2,5.6-23.7,8.2-34.2,1.8-5.9,2.2-9.8,4-16.2.9-3.2,1.5-6.4,2-9.8,3.3-11.6,5.6-22.5,9.1-36,.8-3,1.2-4.8,1.3-5.4.7-4.9,2.3-9,3.2-13.5,1.7-8.2,3.9-16.9,6.5-26.2,1.4-7.5,4.8-19.7,5.8-23.6.6-2.1,1.5-6.2,2.9-12.3,1-4.3,2.1-8.4,3.4-12.3,1.2-2.6,3.4-4.1,6.2-5.5,1.5-.7,3.7-1,6.4-1,5.4.1,10.8-.1,13.4,4.7.2.4.3.8.4,1.2.5,6.6-.9,12.5-3.2,18.3-2.9,13.3-4.5,20.6-4.9,21.6-1.6,5.5-2.4,12-3.7,16.5-1.1,3.7-2.1,7.3-2.2,10.6,0,.8.6,1.5,1.5,1.5,0,0,30.2-.1,30.2-.1.7,0,1.3-.4,1.6-1.1,1-2.5,1.7-4.8,2.1-6.9,3-13.8,5.8-25.9,8.5-36.2,1.4-5.9,2.9-13.3,4.8-19.6.7-5.7,1.6-10.5,2.6-14.2.7-2.7,1.1-5.2,1.2-7.6.2-4.7.2-7.3.2-7.7-.3-2.2-1.2-5.6-2.6-10.2-3.5-11-16.8-15.5-26.6-16.1-35.4-3.4-60,9.6-68.2,44.6Z"/>
  <path class="st3" d="M663.9,101.1c1.4,1.5,2,2.9,1.6,4.3-3.8,16.3-7.5,36.1-11.7,53.2-1.5,1-2.8,1.5-3.8,1.5-15.2.3-30.5.5-45.8.5-.4,0-.7.2-.9.6-.5,1.3-.8,2.6-.7,3.8-1.8,5.8-2.6,12.6-3.8,17.4-2.5,9.9-4.4,18.9-5.8,26.9-3.3,17.9-5.9,28.7-9.4,46-1.6,7-1.9,10.3-3.5,16.7-.2.7.5,1.4,1.2,1.2,1.9-.5,3.4-.7,4.4-.6,3.1,0,33.2-.6,38.7,0,2.1.7,2.9,2.3,2.4,4.8-2.4,9.9-4.9,26.2-8.3,39.5l-2.6,12.8c-.7,2.7-3.4,4.1-8.2,4.2-12.1.2-25.6.4-40.4.4-.6,0-1,.4-1.2.9-1.6,5-2.6,10.2-3.3,15.5,0,.5-.5,2-1.3,4.5-.4,1.2-.7,2.7-.9,4.6-.3,3.2-1.3,8-2.8,14.3-1.4,5.7-1.6,10-3.1,15.4-3,10.6-3.9,21.9-6.6,32.8-.8,3.4-1.6,7.2-2.4,11.6,0,.4.3.8.7.8,0,0,3.6-.1,3.6-.1,8.7,0,32.5.1,41.5.2,2.9.4,3.2,4.5,2.8,6.7-1.4,7.9-2.1,12.2-2.4,12.9-.7,2.6-1.4,4.8-1.9,7.7-2,11.3-3.9,20.8-5.7,28.7-.8,3.2-2.7,4.9-5.8,5-17.9.9-33.4,0-83,.4-1.5,0-3.8-.1-6.8-.4-2.4-.2-3.6-1.7-3.1-4,1.6-7.2,1.9-12.7,3.5-19.7,2.4-10.4,4.3-19.6,5.8-27.5,1.2-6,3-12.8,4.4-19.2.9-2.5,1.5-4.8,1.8-6.9.9-6.3,2.6-13,3.6-18.7.7-3.8,1.9-6.9,2.3-10.5,2-11.4,1.8-7.8,6.9-30.7,3.6-15.5,6.3-32.5,10-46.5,1.1-4.3,1.6-9.8,3.1-14.5.7-2.1,1.5-5.7,2.4-10.8.9-5,2.3-9.8,3.2-15.5.9-5.3,2.8-10.6,3.7-16.8.8-5.5,2.9-11.9,4-17,4.3-19.9,5.1-24.5,7.9-36.7,1-8,2.7-11.5,3.7-18.1.7-4.4,2.5-9.4,3.4-13.9.2-1.4.7-3.3,1.4-5.7,1.1-3.9,1.7-10,3.2-15,1-4.1,1.3-8.5,2.6-12.2,1.5-3.9,1.8-7.5,2.5-11.2,1.4-4.6,2.4-8.8,2.9-12.7.6-4.2,1.8-6.6,4.2-9.6.4-.5,1-.9,1.7-.9,2.5-.2,4.5-.2,6.1-.2,20.1.2,39.8-.7,60.1-.5,1,0,19.3-.5,23.8.5ZM569.3,132.3c-1.6,6.7-2.9,13.4-4.7,20.2-.7,2.7-1.4,6.1-2.1,10.2-.5,3.1-2.2,7.1-2.6,10.5-.4,3.4-1.1,6.8-2.1,10.3-1.3,4.4-1.3,8.5-2.4,12.5-1.6,5.9-3.1,12-4.3,18.4-1.2,7.7-5,21.7-7.2,33.5-.5,3.5-2,6.5-2.4,10.1-.4,6.5-4.8,18.8-6.6,30.6-.4,4.9-2.3,10.2-3.1,14.2-1.6,7.9-2.3,10.1-3.6,17.9-.6,4.5-2.2,8.2-3,12.4-1,7.1-3.2,14.2-4.4,20.9-8.8,42.3-17.4,82-26.7,126.1-.6,2.7-.6,5.3-1.1,8-.1.7.4,1.4,1.1,1.4,0,0,83.6-.3,83.6-.3.8,0,1.4-.5,1.6-1.3,0,0,9.6-46.5,9.6-46.5.1-.5-.3-.9-.8-.9-7.7.2-15.5.2-23.4,0-6.3-.1-13.7.2-18,.2-2.8,0-4.7-.5-7-1.7-.6-.3-1-1-.9-1.6,1.5-10.3,2.9-13.1,4.1-21.3.9-6.5,3.1-12.7,3.7-18.3,2.8-11.8,5.1-23.9,7.9-35,1.8-7.1,2.5-12.5,4.3-20.1.4-1.8,1-5.7,1.6-11.6,0-.3.4-.5.6-.2,0,0,1.3,1.2,1.3,1.2.2.2.6,0,.5-.3,0,0-.5-2.7-.5-2.7-.1-.7.3-1.4,1-1.5.2,0,46.6-.2,46.8-.2.5,0,.9-.3,1-.8,0,0,9.8-47,9.8-47,0-.4-.2-.7-.5-.8,0,0-44.3.1-44.3.2-.7,0-1.3-.3-1.7-.9-.9-1.3-1.1-2.7-.7-4.3.7-2.8,1.9-8.5,3.5-17.1,5.7-26.7,12.4-56.9,17.6-82.5,1.3-6.5,2.5-12,3.6-16.4.4-1.4,1.2-2.5,2.6-3.1,18.1-.8,38.1-.3,45.1,0,2.7.1,4.1-.4,4.3-1.6l.4-2.3c1.4-4.8,2.1-10.8,2.9-14.6,3.2-14.2,5-22.8,5.5-25.6.2-1.2.6-2.5,1.3-4,.2-.4-.1-.8-.5-.8,0,0-83.4.3-83.4.3-.8,0-1.5.6-1.7,1.3,0,0-5.5,24.7-5.5,24.7Z"/>
  <path class="st3" d="M996.9,100.2c1.3,1.1,1.9,2.4,1.9,3.8-.3,5.2-1,10.5-2.2,16-3.8,16.6-3.5,20.5-6.9,35.5-.8,3.8-3.8,3.6-7.6,3.6-13.1.2-26.9.1-41.5-.1-.8,0-1.5.6-1.6,1.4-2.1,11.9-4.4,23.2-7,33.9-1.1,4.5-1.5,9.4-2.7,13.6-.5,1.8-1.1,8.2-2.2,11.1-.6,2.1-.5,4.5-1.2,7.1-3,12.5-5.4,25.1-7.5,37.6-.2,1.4-.8,3.6-1.6,6.7-.1.5.2.9.6,1.1,2.2-.1,4.4-.4,6.9-.3,13.2.3,24.6.3,34.2,0,6.3-.2,5.8,5.4,4.9,10-1.7,6.3-2.1,12.9-3.8,19-.6,2.2-1,5-1.2,8.5-1.1,4.6-2.6,9.4-4.2,18.1-.6,2.9-2.1,4.8-4.5,5.7-.6.2-3.2.4-7.6.5-13.5.2-25.9.2-37-.3-.2,0-.4.2-.5.4-1.4,5.3-2.3,9.1-2.7,11.3-1.5,8.3-3.8,16.3-5.1,24.3-.4,2.4-.9,4.8-1.5,6.9-.8,3.2-.8,5.9-1.6,9.3-3.4,15.3-6.7,31.3-10,47.8,0,.5.3.9.8.9,16.7.2,30-.6,44.8.1,3.1.5,3.3,4.6,2.7,7.9-1.1,6.3-1.8,10-2.1,11-3,10.6-4.2,25.4-7.8,37.7-1,3.3-3.4,4.9-7.3,4.7-5.6-.2-10.9-.3-16-.3-16.4.2-38.1.3-65.2.4-2.5,0-4.7-.3-6.6-.9-1.2-.4-1.9-1.6-1.8-2.8.9-6.5,2.1-12.8,3.4-18.7,3.3-14.8,5.7-31.5,9.2-45.7,2.2-9.3,3.7-19.5,5.6-28.1,1.9-8.3,3.7-17.3,5.5-27,.7-3.7,1.4-6.8,2-9.1,1.2-4,1.2-8,2.4-12.2.8-2.8,2-8.5,3.6-17.3,1-5.8,7.5-37.3,8.1-39.7,1.7-6.7,2.1-12.3,3.2-15.9,1.6-4.5,1.6-9.4,2.9-14.1,1.7-5.9,2.1-10.7,3.1-17.4,3.5-13.9,5.9-30.3,9.6-45.7.6-3.9,1.8-10.7,3.5-20.2.5-2.7,1.7-6.1,1.9-8.3.3-2.4.8-4.9,1.5-7.5,2.1-8,3.8-17.3,5.1-23.6-.2-1.3.4-3.8,1.7-7.2.4-1.1.9-4.3,1.5-9.7,0-.5.1-.9.3-1.4,1.6-5.3,2.7-10.8,3.3-16.3.1-1.1.8-2.3,1.9-3.6.6-1.2,1.3-2.9,2.6-3,0,0,89.6.7,89.6.7ZM908.2,109.8c-.9,5.9-1.5,9.7-2,11.3-1.6,5.1-2.5,11.4-3.5,15.8-1.5,6.7-2.7,12.2-3.6,16.6-1.1,5.8-2,9.7-2.5,11.8-2.9,16.4-3,16.7-8.8,43.3-1,4.4-1,8.1-2,12-.5,2-1.1,4.7-1.7,8-3.3,17.5-5,26.4-5,26.6-.2,2.2-.9,5.5-2.1,9.8-1.3,4.8-2,11.3-3.4,16.5-1.4,5.5-1.9,11-3.2,16.8-3.1,12.9-4.2,21.5-6.3,31.1-6.1,31-11.8,57.1-16.6,80.6-.7,5.8-3.2,16.5-3.9,21.2-1.1,7.1-2.8,12.9-4.4,21.1-.8,3.9-2.3,7.9-2.8,11.8-.7,4.9-3.2,15.1-4,21.4-.2,1.5.2,2.5,1.3,2.8,45.2,0,37,.8,79.7-.3,2.4,0,4,.3,4.4-2.2,1.4-8.2,3.5-18.5,6.2-30.9,1.2-5.6,1.6-9.6,2.6-14.6,0-.2-.1-.4-.4-.4-23.3,0-36.7-.1-40.1-.1-3,0-7.2.4-8.6-2.2-.2-.3-.2-.7-.1-1,.8-3.3,1.3-8.4,2.2-12.8,5.6-26.8,10.1-47.5,15.2-73.9,1-4.4,2.5-15.3,3.9-19.7.2-.6.6-1.1,1.4-1.4.5-.2.5-.9.1-1.3-.3-.3-.3-.8,0-1.1.1-.2.3-.2.6-.2h47.3c.3,0,.5-.2.6-.5l8.3-38.6c.2-3.1.5-6.1,1.4-9,.1-.3,0-.7-.4-.8-14.9-.2-29.1,0-42.2.5-1.7,0-3.1-.4-4.4-1.4-.3-.2-.4-.5-.4-.8,0-1.8,0-3,0-3.6.3-2.8,1.9-11.1,4.9-24.8.3-1.4,1.5-7.8,3.7-19.2.8-4.2,1.3-6.8,1.6-7.6,1.9-6.5,1.9-11.7,3.7-19,3.1-14.6,6.2-29.4,9.1-44.5.4-2.2,1.8-3.3,4.1-3.5,12.8-.7,31.7.2,45.9.6.6,0,1.1-.4,1.2-1,0,0,5.1-29.4,5.1-29.4.9-4,1.5-7.9,2.1-11.9.3-2.2.8-4.2,1.6-5.7.1-.2,0-.5-.2-.7,0-.1-83.3-.5-83.5-.6-.7,0-1.2.5-1.3,1.1,0,0-.6,3.9-.6,3.9Z"/>
  <path class="st3" d="M999.6,369.1c-1.2,5.3-2.5,10.9-3.9,16.9-1.5,6.1-2,12.1-3,19.1-4.8,20.4-10.1,49.7-12.1,59.8-1.9,10-4.2,19.1-6.3,28.1-.1.6-.6,1.1-1.2,1.1-1.5.2-2.5.4-3.1.4-6.2.1-16.5,0-25.1.3-3.1.1-6.1,0-8.9-.2-2.9-.2-4.2-1.7-3.8-4.5,1.1-7.8,2-13.6,2.9-17.4,1.2-5,1.9-8.7,2.1-11.1.3-2.7.9-6.4,2-11.1,7.6-37.7,21.4-105.7,27.9-134.8,1.9-8.8,3-14.4,3.3-16.8.3-3,1.9-6.7,2.4-10.1,2.3-15.4,7.3-37.7,10.3-54.9,5.8-25.6,8-39.5,13-63.5,2.8-12.9,3-15.3,4.7-24,1-4.5,1.5-7.2,1.6-8.1,0-.4.1-.7.3-1.1,1.5-3.2,2.4-6.9,2.7-11.4.4-5.5,1.8-9.4,2.4-15.1.1-1.4.6-3.4,1.3-6.2.8-3.1,2.9-4.6,6.3-4.5,2.4,0,19.3.1,50.8.2,3-.1,5.6,1.9,5.5,4.8-.8,4.3-1.3,9-1.3,14.1,0,.9-.1,1.8-.3,2.6-.7,3.7-1.2,7.3-1.3,10.7-.3,8.8-2.1,17.6-2.6,25.7-.4,5.8-.9,10.4-1.6,13.6-1.1,5-1,11.7-1.7,18.1-1,8.2-1.9,16.8-2.7,26-.3,3.9-1.4,7.4-1.8,11-.7,6.5-1.2,11.9-1.4,16.1,0,.1.2.2.3,0,2.4-9.2,3.9-15.1,4.4-17.6.6-3,1.4-5.7,2.4-8.2,1.5-3.7,1.9-7.5,3.1-10.9,2-5.3,2.8-10.7,4.6-16.7,6.3-20.7,7.2-25.1,11.2-39.5,3.4-10.9,5.8-19.4,7.3-25.5,0-.4.7-2.2,1.9-5.3,1.7-7.4,3.2-14.5,4.1-15.9,1.7-3.2,6-2.9,9.2-2.9,13.6.1,29.3.2,47.2.4,3.8,0,4.2,2.5,3.8,5.9-1.2,9.1-2.3,16-3.3,20.8-.5,2.2-.8,4.6-1,7.2-.2,2.9-1.6,6.3-1.7,9.5,0,1.6-1.3,7.8-3.6,18.6-.8,3.4-9.4,48.6-13.3,69.8-1.4,4.9-1.9,11.8-3.7,17.8-.8,2.5-1.3,4.9-1.7,7.3-4.4,30.2-10.9,58.1-16.2,86.9-1.6,9.3-3,16.7-4.2,22.3-2.6,12.3-3,15.6-5,27.4-1,6.5-3.9,17-5.1,25.5-.5,3.9-1.7,6.9-2.4,10.3-1.3,10.1-2.9,19.2-4.8,27-.9,3.7-1.5,6.8-1.7,9.1-.4,4.3-1.9,7.7-2.4,12.1-.3,2.5-1,6.1-2.1,10.8-.5,1.9-1.6,3.4-3.9,3.7-4.1.5-6.7.8-7.9.8-10-.2-19.4.7-29.5,0-5.4-.8-1-13.7,0-17.2,1.3-4.5,1.5-9.3,2.3-13.3,4.4-21.3,9.6-47.6,14-69,1.5-7,2.9-14.8,4.1-23.4,0-.1,0-.3-.2-.3h0c-.2,0-.4,0-.4.3-1.8,7.2-5,15.7-6.7,22.6-1.4,5.5-3.1,11.5-5.3,18.1-1.8,5.6-2.6,11.2-4.4,16.5-1.2,3.6-1.8,8.2-3.2,11.1-.6,1.2-2,6.2-4.1,15-2.9,8.6-5.2,17-7.5,26.2-.7,3.1-1.8,6.2-3.3,9.3-1.8,3.7-4.3,4.7-8.7,4.7-13.1,0-21.5.2-27.4,0,0,0-3.5-.7-3.5-.7-.9-.2-1.6-1-1.5-2,.3-5.6.7-10.9,1.4-15.9,1-7.9,1.6-17.4,2.8-26.2,1.7-17.6,4-29.2,6.3-51.6.3-3,1.1-6.2,1.3-8.9.4-6.2.9-12.7,1.5-19.5,0-.1,0-.2-.2-.2h0c-.1,0-.2,0-.2.2ZM1014,110.8c-1,7-3.4,14.7-4.4,20.4-2.4,14.8-6,30-8,43.3-.6,4.2-2,7.8-2.6,11.9-.3,2.5-.9,5.4-1.8,8.9-.9,3.8-2.1,10.7-3.7,16.5-1.1,4.1-1.1,7.5-2.3,12.6-1.5,6.5-4,20.7-5.9,28.7-1.4,5.7-2.4,10.9-3,15.6-.5,3.9-2,8.5-2.6,12.2-2,13-6,30.8-6.9,37.3-.4,2.8-1.1,5.7-2,8.8-1.9,6.5-2.8,13.8-4.1,20.3-1.8,8.9-5.2,23.4-7.3,34.6-.6,4.4-2.1,9-2.9,13-.6,3.5-3.5,15.7-5.1,25.8-.3,3.2-1.3,5.4-2.2,10.1-4,19.5-7.6,35.7-10.4,56.6,0,.5.3.9.8.9,0,0,29.6-.1,29.6-.1.3,0,.5-.2.6-.5,1.2-7,2.7-14.7,4.7-23,2.2-9.3,3.3-19,5.6-28.8,1.4-6,1.5-9.8,3.3-15.3,1-2.8,1.5-6.2,1.6-10.2,0-.7.1-1.3.3-1.9,0-.1,4.5-19,5.2-23.4,1-6.5,2.5-11.5,3.6-18.2.7-4.6,2.5-9.5,3.5-15.1,1.3-7.7,2.7-15.4,4.1-23.1l9.3-46.3c.9-2,3.2-2.4,5.3-1.4-.5,4.5-.9,8.8-1.2,13-.2,3.2-1.2,6.1-1.3,8.9-1,10.2-2.7,17.6-3.4,31.1-.3,3.9-1.4,7.9-1.5,11.1-.1,6.4-1.7,13.5-2.1,19.4-.6,9.5-2.3,19.8-3.1,27.6-1.3,12.7-2.7,25.2-4.2,37.5-.4,3.6-.2,8.5-.9,12.6-1.2,8-2.1,14.1-2.6,18.2-.5,3.6-.4,7.1-1.2,9.8-.5,1.7-.7,4.1-.8,7.3,0,1.6-.3,4.5-.7,8.8,0,.5.4,1,.9,1,0,0,26.7-.1,26.7-.1,1.1,0,2.1-.8,2.5-1.9l9.8-34c2-5.4,3.1-11.9,4.5-16.3,1.8-5.9,2.6-9.9,4.7-14.8,1.9-4.8,1.4-8.2,3.8-14,1.1-2.9,1.9-6.3,2.6-10,.2-1,.5-1.9.8-2.8,2.6-6.5,4.7-13.5,6.5-21.1,2.1-9,4.8-15.5,7.2-24.6,1.1-4,2.8-10.1,5.3-18.5,4.6-15.3,8.9-31,13-47.1.4-1.5,1.9-2.2,3.4-2,1.6,0,2.9,1.5,2.5,3.1-.7,3.4-1.2,5.9-1.4,7.6-.6,4.7-2.5,9.5-3.2,14.5-.6,3.6-2.6,9.3-3.1,14.7-1.1,4.4-2.4,8.9-2.7,12.2-.6,4.9-1.8,8.2-2.5,13.2-.5,3.9-1.1,7.2-1.7,10-4.1,19-7.5,36.7-10.3,53.1-.7,4.3-1.8,9-3.1,14.3-1.3,4.9-1.5,10.9-2.5,14.9-1.1,4.1-2,8.6-2.9,13.3-.9,4.7-2.4,8.4-3.1,13.1-1,7-3.1,15.8-4.5,22-.1.6.3,1.1.9,1.1,0,0,30.6-.1,30.6-.1.5,0,.9-.4,1-.8,1.4-9.1,3.6-20.8,6.6-35,1.6-7.6,3-19.6,5.7-29.8,1.9-7,4.2-23,4.7-26,.5-3.8,1.9-7.1,2.3-11.1.5-4.5,2.4-10.4,3-14.1,5.5-29.6,14.6-73.6,18.9-99,1.7-9,4.5-20.1,5.5-28.7.6-4.9,1.9-9.3,2.7-14,1-6.8,2.6-12.6,3.9-18.3,0-1.5.2-2.8.5-4.1,1.6-8.1,3.1-16.1,4.5-24.1.5-3,1.7-6.4,2.3-9.3,3.8-19.1,5.1-26.6,6.4-36.7.9-2.2,1.5-4.8,1.9-7.5.9-7.6,1.8-10.6,3.6-20.6.1-.7-.4-1.3-1.1-1.3,0,0-48-.3-48-.3-.8,0-1.6.6-1.7,1.4-.7,4.6-1.8,8.9-3.1,12.6-1.8,5-3.2,9.9-4.2,14.8-.5,1.8-1.4,3.6-1.6,5.4l-6.4,24.1-32.4,112.9c-.2.6-.7.9-1.3.9,0,0-3,0-3,0-.7,0-1.3-.6-1.3-1.3,0-4.3.2-8.6.8-12.6,2.3-16.8,3.9-29.7,4.7-38.6.5-5.5,1.6-13.9,3.1-25.2.3-2.7.2-6.2.7-9,1.1-6.2,1.2-12.7,2.2-19.5,1-6.6,1.6-13.1,1.9-19.4.1-4.1,1.1-7.8,1.2-11.6.6-11.1,2.8-24.6,4.2-34.3.2-.9-.5-1.7-1.4-1.7,0,0-49.6-.3-49.6-.3-.4,0-.7.3-.7.7,0,0-.4,5-.4,5Z"/>
  <path class="st3" d="M546.4,152.3c-.9,2.7-1.4,4.5-1.5,5.5-.7,5.2-1.6,11.1-2.7,17.8-.7,4.3-1.8,7.9-2.6,12.6-.3,1.9-1,5-2.1,9.4-4.4,17.7-5.6,24.5-8.9,39.7-2.1,9.6-3.3,15-3.5,16.2-1.8,10.2-6,23-8.4,33.2-1.3,5.5-2.6,9.3-3.8,11.4-1.6,2.6-2.9,5-3.9,7.1-2.9,5.9-6.1,9.5-10.2,14.1-2,2.3-4.4,4.4-7.1,6.1-3.6,2.4-7.1,4.5-10.5,6.4-.8.5-1.4,1.3-1.4,2.3-.5,19.4-.8,35.4-.9,47.8,0,4-.6,8-.3,11.3.4,4.6-.3,9.4,0,14.5-.6,26.9-.5,50.4-1.2,77.7,0,4.4-.3,10.2-5.4,10.3-6.8.2-11.5.2-14.2,0-7.6-.4-15.4.6-23.4.4-3.1,0-4.8-1.7-5-4.7-.3-3.3,0-9.9.9-19.8h0c0-1.1-.5-3.8-.3-4.7.8-18.2.5-41.1.7-64.4,0-6.9.8-15.1.4-22.9,0-.3-.4-.3-.5,0-.9,3.9-2.8,12-5.6,24.1-1.2,5.4-1.6,10.9-2.9,15.6-2.3,7.8-2.9,14.9-4.6,21.1-1.5,5.3-2,10.2-3.4,16-2.2,9.5-3.9,19.1-5.4,27.6-.4,2.4-1.3,5.2-2.5,8.5-1.5,4-5.5,3.8-8.5,3.8-1.9,0-11.8,0-29.8-.1-2.1,0-3.8-.1-5.1-.4-.8-.1-1.4-.7-1.6-1.5-1-5.4.4-10.7,1.7-16.6,1.4-5.9,2.2-9.5,2.4-10.9.9-5.8,2.7-11.9,3.9-17.3,7.5-33.1,7.3-36.1,13.5-60,.9-3.2,1-6.6,1.9-9.9,2.1-7.7,3.6-14.3,4.5-19.6,1.5-8.4,4-16.3,5.4-24.9.8-4.8,2.5-9.5,3.2-14.3,1.1-7.1,2.9-13.2,3.9-19.2.6-3.8,2.4-8.2,3-12.3.9-5.8,3-12,3.6-18,0-.9.3-1.7.6-2.5,2.3-5.8,2.7-13.9,4.4-18.8.8-2.3,1.3-5,1.7-8.1.5-4.2,2.7-10,3.4-15.2.5-3.9,2-6.7,2.6-10.8,1.4-8.2,4-17.5,5.8-26.6,1.2-6,3.3-11.3,4.3-17.6.4-2.6,1.3-6.5,2.7-11.5,1.9-6.9,3.3-14,4.3-21.1,3.3-10.2,5.2-21.9,8.4-31.5.9-3,2.8-4.5,5.6-4.6,28.1-.5,45.3-.9,60.6-.4,4.2.2,9.1,1.5,14.8,4,5.7,2.5,10,6.4,13.1,11.4,2.7,4.7,5.2,9.5,5.9,14.8.4,2.9.4,9.4,0,19.5ZM450.2,112.7c-6.5,28.8-13.3,56.1-19.4,85.2-2.9,11.9-5.3,22.2-7,31.1-1.1,5.6-2.7,10.1-3.5,15.5-.4,2-4.9,19.1-5.2,24.4-3.2,13.8-9.4,41.6-12.4,55.5,0,0,0,0,0,0-1.9,6.6-2.8,13.7-4.6,20.5-2.6,11.6-10.5,47.7-11.5,52.7-5.1,21.7-9.4,40.1-13.9,62.2-.2.8-.8,4-1.8,9.4-.6,3.1-1.3,6.2-2.2,9.3-1,3.6-1.1,6.9-1.4,10.4,0,.5.3.9.8.9,16.7-.2,26.7-.3,30.1-.2,2.2,0,3.5-1.1,4-3.5,2.2-10.3,4.9-24,8.3-41.3.8-4.3,2.4-8.7,2.8-13.4.4-3.8,1-7.2,1.9-10,.6-1.8,4.5-21.3,6-26.5,1.9-8.1,3.6-18.7,6.6-30.4,2.2-8.7,2.5-16,5.5-25.6.2-.6.8-1.1,1.4-1.1h2.4c.6,0,1.1.5,1.2,1.1.5,3.6.3,8.2-.3,12.4-.9,5.3-1.1,10.4-.8,15.1.3,4.1,0,8.1,0,12.4,0,.9,0,3.9-.4,8.8-.2,2.6-.1,5.6,0,8.9.2,2.3-.4,4.9-.4,7.1-.2,28.4-1.6,56.6-1.3,84.9,0,.5.4.9.9.9,0,0,34.3.2,34.3.2.6,0,1.1-.5,1.1-1,0,0,.7-79.7.7-79.7.3-16.7.7-32.7.7-49.3,0-7.9.2-11.8.4-20.9,0-1.5.2-3.7.6-6.7.2-1.6,1.2-3,2.6-3.7,17.2-8.3,26.5-21.8,33-38.1,5.3-13.8,8.9-34.8,12.2-51,.5-2.7,2.1-6,2.5-8.5,1.2-7.2,1.9-11.4,2.2-12.7,3-12.4,5.8-24.7,8.3-37.1.7-3.2,2.1-6.7,2.3-10.4.3-4.4,2-8.7,2.6-13.5,1.5-9.6,2.4-19.5-.5-28.7-5.6-18.8-22.5-21-39.8-20.6-16.3.3-31.1.5-44.5.5-1.1,0-2.3,0-3.5.2-.4,0-.7.3-.8.7,0,0-.8,3.7-.8,3.7Z"/>
  <path class="st3" d="M1297.4,102l46.3.7c8.7.5,18.3,2,25.5,6.2,5,2.8,7.3,6.3,10.7,12.1,4.7,8,6.1,18.4,5.7,27.5-.2,6-.7,12.6-2,18.6-.7,3.2-2.1,10-2.5,14.7-.4,5-1,9.4-1.9,13.2-.8,3.2-.9,10.4-2.4,15.2-1,3.8-1.8,9-2.3,15.6-1.8,7.2-3.7,14.4-4.3,21.8-2.1,9.4-3.9,18.9-5.5,28.4-1,6.2-3.3,13.3-4.4,17.2-.6,2.1-3,5.3-3.4,6.6-3.5,9.3-8.9,17.1-16.2,23.4-3.5,3.1-7.5,5.3-12,8.2-.7.5-1.1,1.2-1.1,2.1l.6,16.4c.3,17.3.8,57.1,1,74.8-.7,4.6,0,16.1,0,18.6-.3,5.4.2,7.4.1,10.5-.4,2.3-.4,5.3-.1,8.8.2,2.7-.2,5.7,0,8.7.2,3,.4,5.8.5,8.4.2,3.6-.6,7.5-1.2,10.8-.1.8-.8,1.3-1.5,1.4-4,.3-8.1.4-12.2.3-7.8-.2-18.2.7-25.8,0-3.8-.4-5.5-2.4-5.8-6.1-.4-5.6.2-10.9.2-17.4,0-17.9-.2-32.8-.5-44.8,0-2.7.4-5.7.3-8-.4-8.6.8-27.6-.6-41.4,0-.3-.5-.3-.5,0-.4,6.4-2.1,12.6-2.9,18.6-.4,4.3-2,8.6-2.2,12.2-1.4,12.3-6.4,34.3-7.9,46.3-.2,1.8-.8,3.4-1.2,5.2-.7,5.1-1.4,9.3-2.1,12.5-1.7,7-2,13.9-4.2,19.9-1,3-3.4,2.7-6,2.8-11.4.6-22.3.8-32.5.4-4.4-.1-6.7-.7-6.1-5.5,3-22.5,6.3-36.1,11.6-62.9.7-3.3,1.8-9.7,3.4-19.1,1.8-10.9,5-24.5,6.9-36.6.7-4.3,2-8.4,2.4-13,.3-3.5,1.8-7.6,2.3-10.5,2.5-12.6,6.6-34.8,9.8-52.2,1.2-4,1.4-9.8,2.7-14.6,1.4-5,1.1-8.8,2.6-13.8,1.5-3.9,3.2-18.3,3.3-19.2.2-1,3.2-19.9,5.5-28.2,1.1-3.6,1-7.4,1.8-11.1.7-2.2,1.2-4.5,1.4-6.7.8-6.6,2.9-14.4,4.1-20.7,1-4.6,1.2-9.5,2.4-14.3,1.6-4.9,1.7-9.8,2.7-14.8,3.1-15.1,7.3-38.9,7.6-40,2-8.1,2.2-6.8,10-7.3ZM1342.8,313.4c2.6-3.4,5-7.2,7.1-11.2,6.8-13.9,6.5-12.9,10.8-33.7,3.3-15.5,5.1-23.8,9-48.7.8-6,3.9-18.5,4.2-23.2.1-1.4.5-3.3,1.1-5.7,1.2-4.2,1.3-9.5,2-13.7,1.4-8.5,2.4-15,3.1-19.5,1.3-8.3.7-17.6-1.6-27.8-.7-3.1-2.8-6.6-4.1-9.7-.2-.4-.4-.8-.8-1.2,0,0-4.7-4.8-4.7-4.8-3.2-2-9-4.7-13.2-4.7-2.5-.3-4.8-1-7.6-1,0,0-.1,0-.2,0l-.3-.3s0,0-.1,0c0,0-32.6-.3-32.6-.3-7.3.2-13.9-.9-21.2,0-.3,0-.5.2-.5.4-1.3,5.2-1.1,10.3-2.4,15.4-2.2,8.3-6.7,35.4-9.1,46.4-1.2,5.3-6.7,38.6-8.8,48.6-1.8,7.7-1.3,8.2-2.9,15-1.2,5-1.5,10.6-3,15.8-1.7,5.7-2.9,12.1-3.7,19-.3,3.1-.8,6-1.5,8.6-.4,1.5-.8,4.3-1.3,8.6-2.8,17.2-9.3,44.4-11,56.8-1.6,9.6-2.7,15.5-3.3,17.6-.8,2.9-.7,5.6-1.7,8.9-1.5,5.9-2.3,13.6-4.1,20-1.5,10.5-3.3,18.9-5.3,30.7-.4,2.3-1.4,4.1-1.7,6.6-.6,4.5-1.6,9.7-2.8,15.5-.9,4.2-.9,7.8-1.8,11.6-1.2,4.9-1.4,10.1-2.8,14.8-1.6,5.5-2.6,11.4-3.4,17.3,0,.5.3.9.8.9,0,0,30.9-.1,30.9-.1,1.3,0,2.4-1,2.6-2.3.4-3.7.9-7,1.7-9.7,2.3-8.9,3.7-20,5.2-26.5,1.1-4.6,1.2-9.9,2.3-13.9,1.2-4.4,1.4-10.9,3-16.2,1.1-3.7.9-7.7,1.9-12,.6-2.6,1-5.1,1.3-7.5.5-5.4,2.3-10.6,3-15.9.7-5.7,2-11.1,2.5-16.5,0-.6.2-1.2.4-1.7,1-2.5,1.6-5,1.8-7.5.4-4.9,2.7-12.3,3-18.4.1-1.8,1.7-3.2,3.5-3.1,1.7,0,3.1,1.5,3,3.2-.3,4.2-.6,9.2-1.1,15.1-.5,6.3.5,16.4.4,22.7-.1,10.7,0,24.9.1,42.6.3,4.4-.4,44.2.6,66.2,0,.5.4,1,.9,1,0,0,32.6.2,32.6.2.6,0,1.1-.5,1-1.1-1-14.8-.4-29.1-.7-44.9-.4-22.8-.6-72.8-.6-87.6,0-3.5.4-6.9,0-10.5-.4-3.9-.2-9.3-.3-13.5,0-.8.5-1.6,1.3-1.9,7.2-2.8,13.5-7.1,18.7-13.1Z"/>
  <path class="st3" d="M1403,103.2c14.2-.1,24.1,0,29.5.3,4.5.3,5.5,4.5,5.4,8.8,0,2.1,0,5.9-.1,11.5.2,14.9,1.2,30.9,1,45.5,0,5,0,7.6,0,8,0,.4.4.8.8.8.3,0,.6-.2.7-.5,1.7-6.2,3.7-12.5,5.8-18.8.5-1.5.7-3.7,1.2-4.8,2.4-5.4,3.9-11.5,6.1-17.8,2.3-6.6,4.7-14.3,7.2-23.3,1-3.7,2.3-8.3,7.4-8.4,8.4-.1,17.6,0,27.5.1,3.7,0,9.3-.3,9,5,0,2.2-.5,4.5-1.3,7-3.8,12-5.5,18.3-8.5,26.1-1.3,3.1-1.8,6.6-3,9.7-1.6,3.5-2.6,7.3-3.2,11.2-.8,2.9-2,5.8-3.5,8.7,0,0,0,0,0,.1,0,0-2.3,8.9-2.3,8.9-1.9,4-3.3,8.1-4,12.4,0,.6-.3,1.2-.6,1.7-2,3.3-3.2,6.5-3.7,9.8-.7,4.5-3.1,8.2-4.1,12-1.4,5.3-2.6,9.1-3.5,11.2-.7,1.6-1.3,3.4-1.6,5.1-.8,4.4-2.7,7.7-4,11.8-.8,2.7-2,6.1-3.6,10.1-.8,3-1.3,6.3-2.5,9.1-2.7,4.5-3.7,10.9-4.7,14.1-.3,1.4-1.9,3.9-2.6,5.2-.2.4-.4.9-.6,1.4-1.4,4.8-2.9,8.7-3.7,13.4-1.3,7.4-2.2,12.7-2.7,15.8-.9,6.1-1.8,11.3-2.7,15.7-2.1,9.6-2.8,18.6-5.2,27.9-4.6,26.9-12.8,76.3-18.2,102.3-1,7.4-1.7,10.1-2.8,16.9-.4,2.9-1.2,6.1-2.2,9.5-.8,3-2.8,4.6-5.9,4.7-7.8.4-17.3.5-28.5.3-2.6,0-4.7-.2-6.2-.6-1.1-.3-2-1.2-2.1-2.3l-.8-5.4c0-.2,0-.4,0-.6,6.7-39.9,23-129.2,30.5-169.7.6-2.5,1.3-5,1.5-7.6.5-8.8.8-13.2.8-13.4.5-4.2.5-8.7,0-13.3-.8-30.4-1.3-64.2-2.2-94.1-.2-3.2-.3-7.7-.3-13.4,0-1.9-.6-4.5-.4-5.8.3-3.3,0-12-.8-26-.3-4.4-.5-14.7-.5-30.9.7-3.7,3.8-5.6,7.9-5.5ZM1403.9,274.9c.4,15.2.7,26.6-2.2,40-.8,3.5-1.3,6.5-1.7,9.1-.8,6-7.5,43.5-8.6,50.3-2.2,15.6-5.8,31.8-8.5,47.2-1,7.5-2.7,13.9-4,21.7-.6,3.5-1.5,8.4-2.9,14.8-.9,4.5-.9,9.8-2.1,14-1.2,4.1-1.2,7.2-1.9,12.2,0,.6.3,1.1.9,1.2,0,.1,30.4-.2,30.5-.1.9,0,1.6-.6,1.8-1.5,4.4-23.8,14.9-81.6,19.3-105.9,1.2-7.1,2.3-14.6,3.8-21.3.9-3.9,1.7-8.4,2.4-13.5.3-2.4,1.1-6.9,2.3-13.5,1.6-8.6,3.5-18.8,4.8-28.2,1.3-9.8,5.5-19.1,8.8-28.4,13.5-41.7,43.6-127.6,52-161.7,0-.2-.1-.5-.4-.5,0,0-29.9-.2-29.9-.2-.7,0-1.3.5-1.5,1.1-2.2,7.7-5.8,16.6-8.4,25.2-5.8,19.9-6.2,22.8-15,47.7-.8,3.1-1.6,6.3-2.3,9.5-.5,2-1.6,3.2-3.5,3.4-2.1.2-3.2-.6-3.2-2.3-.2-13-.5-25.3-.9-36.8-.8-.2-.2-45.8-.3-47.7,0-.8-.6-1.4-1.4-1.4,0,0-30.5-.2-30.5-.2-.7,0-1.3.6-1.2,1.3.4,3.2.6,6.5.7,9.6.4,29,.7,59.9,1.7,90.1.6,21.3.3,43.6,1.4,65.1Z"/>
  <path class="st6" d="M1618,106.1v1.6c-.2-.5-.2-1.1,0-1.6Z"/>
  <path class="st6" d="M1618,118.9v17.6-17.6Z"/>
  <path class="st6" d="M1618,138.9v8.7-8.7Z"/>
  <path class="st3" d="M476.2,155.1c3.8-1.1,7.7-.9,10.6-1,6.4-.1,12,2.8,14.3,9,1.3,3.7.5,6.8.2,11-.5,4.1-2.3,8.5-3,12.9-3.1,15.9-7.2,31.6-10,46.1-3.2,10.5-6.5,27.1-8.5,33.9-3.7,13.5-17.7,16.3-29.7,15.2-2.1-.2-3-1.5-2.6-4,.5-3.3,1.3-9.6,2.5-13.4,1.4-4.6,1.6-8,3.2-13,1.5-4.9,1.9-10.9,3.8-16.5,3-10.2,5.3-23.7,7.1-31.5.6-2.2.5-4.9,1.2-7.2,1.6-3.7,2.7-7.6,3.2-11.9.6-4.3,2.1-7.6,2.7-11.8,1.2-7.3,1.7-11.9,4.3-17.3.2-.3.5-.6.8-.7ZM469.8,273.3l4.7-8.5c1.3-3.6,2.7-11.4,3.4-14.1,5.5-20.3,10.7-45.4,13.2-55.4,1.5-4.1,1.7-10.2,3.3-14.6,1.5-4.3,2.1-9,1.6-12.9-.3-2.7-1.8-7.4-4.8-7.7-1,0-4.8-.1-11.4-.2-.3,0-.6.2-.6.6-.1,1.9-.4,3.7-.7,5.3-3.5,15.2-7,30.3-10.5,45.3-.7,2.9-.8,4.9-1.2,7.1-3.5,13.6-5.6,22-6.1,25-1.2,6.3-2.8,13.6-4.8,21.6-1.1,4.2-1.2,7-1.8,11.7,0,.5.4.9.9.6,1.6-.8,3.3-.2,5-.5,3.6-.7,6.9-1.8,9.9-3.4Z"/>
  <path class="st3" d="M1336,219.3c-2.7,13-5.3,26.1-7.9,39.2-1.1,5.4-3.1,9.9-5,14.5-.5,1.2-1.3,2.3-2.4,3.1-7.1,5.2-14.8,5.5-23.3,4.7-.5,0-1-.5-1-1.1,0-5.2.9-12.9,2.5-19.1.6-2.3,1-5.2,1.3-8.4,0-.6.6-2.5,1.6-5.8.5-3.5.7-7.3,1.5-10.2,2.1-8.3,3.2-16.8,4.8-24.4,1.5-6.7,1.5-13.6,3.2-20.2.6-2.1,1-4.1,1.2-6.1.5-4.2,1.9-8.9,2.5-13.5.4-2.6.7-5.6,1.4-7.9,1.1-3.3,2.1-6.4,2.8-9.2.3-1,1.1-1.7,2.2-1.8,4.2-.4,15.1-.8,18.3,2.8,5.1,5.7,4.7,11.8,3.8,19.1-.8,6.1-1.6,11.2-2.5,15.2-1.9,8.5-3.1,20-5.1,29.1ZM1322.4,159.8c-.8,6.4-2.6,11.6-3.2,17.7-.2,2.7-1.1,8.1-2.7,16.1-1.5,7.8-2.4,14.9-4.4,21.9-.6,2-1.4,6.2-1.5,9-.2,4.3-1,8.4-2.4,12.4-1.1,8.3-2.1,16.8-4.6,26-.9,3.6-1.2,8.1-1.2,10.8,0,.7.6,1.3,1.3,1.3,0,0,8.4,0,8.4,0,2.3-.4,4.3-2.3,5.7-3.8.2-.2.4-.5.4-.8.6-2.3,1.6-4.4,2.9-6.5.3-.3,1.4-4.4,1.6-4.9.5-4.2,1-8,1.8-10.6,1.6-5.5,1.9-10.7,3.8-16.6.2-.7.3-1.3.4-2,.3-3.4.8-6.8,1.5-10.1,1.8-8.8,3.2-18.3,4.4-26.2.5-3.3,1.8-6.4,2.1-9.7.2-3.1.6-6,1.3-8.7,1.3-5.7,2.3-15.4-5.9-15.9-2.8-.1-5.6-.3-8.6-.4-.7,0-1.2.5-1.3,1.1Z"/>
  <path class="st6" d="M1618,161.6v4.1c-.3-1.4-.3-2.8,0-4.1Z"/>
  <path class="st6" d="M1618,176.1v7.5-7.5Z"/>
  <path class="st6" d="M1618,228v2c-.2-.7-.2-1.3,0-2Z"/>
  <path class="st6" d="M1618,232.1v9.3-9.3Z"/>
  <path class="st5" d="M1234.1,266.3s-.1-.6-.2-1.6c0-.3.4-.5.6-.2.3.3.6,2.5-.4,1.8Z"/>
  <path class="st7" d="M1328.8,378.9l-.4-28.9.4,28.9Z"/>
  <path class="st4" d="M1413.5,571.6l-26.9.2,26.9-.2Z"/>
  <path class="st3" d="M1165.3,587.9c3.4-.8,1.4,4.7-.3.7-.1-.3,0-.6.3-.7Z"/>
  <path class="st2" d="M1448.8,583.3H45.3c-16.2,0-28.3-15-24.8-30.8L132.9,40.7c2.6-11.6,12.9-19.9,24.8-19.9h1403.5c16.2,0,28.3,15,24.8,30.8l-112.4,511.8c-2.6,11.6-12.9,19.9-24.8,19.9Z"/>
  <path class="st1" d="M1427.8,565.9H66.4c-15.7,0-27.4-13.9-24.1-28.5L151.4,64.5c2.5-10.8,12.5-18.4,24.1-18.4h1361.4c15.7,0,27.4,13.9,24.1,28.5l-109,473c-2.5,10.8-12.5,18.4-24.1,18.4Z"/>
</svg>